HIERARCHY
ROOT Hips
{
	OFFSET -0.001795 -0.223333 0.028219
	CHANNELS 6 Xposition Yposition Zposition Zrotation Yrotation Xrotation 
	JOINT LeftUpLeg
	{
		OFFSET 0.069520 -0.091406 -0.006815
		CHANNELS 3 Zrotation Yrotation Xrotation
		JOINT LeftLeg
		{
			OFFSET 0.034277 -0.375199 -0.004496
			CHANNELS 3 Zrotation Yrotation Xrotation
			JOINT LeftFoot
			{
				OFFSET -0.013596 -0.397961 -0.043693
				CHANNELS 3 Zrotation Yrotation Xrotation
				JOINT LeftToe
				{
					OFFSET 0.026358 -0.055791 0.119288
					CHANNELS 3 Zrotation Yrotation Xrotation
					End Site
					{
						OFFSET 0.000000 0.000000 0.000000
					}
				}
			}
		}
	}
	JOINT RightUpLeg
	{
		OFFSET -0.067670 -0.090522 -0.004320
		CHANNELS 3 Zrotation Yrotation Xrotation
		JOINT RightLeg
		{
			OFFSET -0.038290 -0.382569 -0.008850
			CHANNELS 3 Zrotation Yrotation Xrotation
			JOINT RightFoot
			{
				OFFSET 0.015774 -0.398415 -0.042312
				CHANNELS 3 Zrotation Yrotation Xrotation
				JOINT RightToe
				{
					OFFSET -0.025372 -0.048144 0.123348
					CHANNELS 3 Zrotation Yrotation Xrotation
					End Site
					{
						OFFSET 0.000000 0.000000 0.000000
					}
				}
			}
		}
	}
	JOINT Spine
	{
		OFFSET -0.002533 0.108963 -0.026696
		CHANNELS 3 Zrotation Yrotation Xrotation
		JOINT Spine1
		{
			OFFSET 0.005487 0.135180 0.001092
			CHANNELS 3 Zrotation Yrotation Xrotation
			JOINT Spine2
			{
				OFFSET 0.001457 0.052922 0.025425
				CHANNELS 3 Zrotation Yrotation Xrotation
				JOINT Neck
				{
					OFFSET -0.002778 0.213870 -0.042857
					CHANNELS 3 Zrotation Yrotation Xrotation
					JOINT Head
					{
						OFFSET 0.005152 0.064970 0.051349
						CHANNELS 3 Zrotation Yrotation Xrotation
						End Site
						{
							OFFSET 0.000000 0.000000 0.000000
						}
					}
				}
				JOINT LeftShoulder
				{
					OFFSET 0.078845 0.121749 -0.034090
					CHANNELS 3 Zrotation Yrotation Xrotation
					JOINT LeftArm
					{
						OFFSET 0.090977 0.030469 -0.008868
						CHANNELS 3 Zrotation Yrotation Xrotation
						JOINT LeftForeArm
						{
							OFFSET 0.259612 -0.012772 -0.027456
							CHANNELS 3 Zrotation Yrotation Xrotation
							JOINT LeftHand
							{
								OFFSET 0.249234 0.008986 -0.001171
								CHANNELS 3 Zrotation Yrotation Xrotation
								End Site
								{
									OFFSET 0.000000 0.000000 0.000000
								}
							}
						}
					}
				}
				JOINT RightShoulder
				{
					OFFSET -0.081759 0.118833 -0.038615
					CHANNELS 3 Zrotation Yrotation Xrotation
					JOINT RightArm
					{
						OFFSET -0.096012 0.032551 -0.009143
						CHANNELS 3 Zrotation Yrotation Xrotation
						JOINT RightForeArm
						{
							OFFSET -0.253742 -0.013329 -0.021401
							CHANNELS 3 Zrotation Yrotation Xrotation
							JOINT RightHand
							{
								OFFSET -0.255298 0.007772 -0.005559
								CHANNELS 3 Zrotation Yrotation Xrotation
								End Site
								{
									OFFSET 0.000000 0.000000 0.000000
								}
							}
						}
					}
				}
			}
		}
	}
}
MOTION
Frames: 16
Frame Time: 0.050000
-0.165957 0.879382 1.033236 -1.575614 -2.686060 13.269340 5.428337 -1.976634 -66.303600 -6.393181 2.793406 58.398261 7.867956 16.836793 5.662146 0.000000 0.000000 0.000000 4.841089 6.637540 -43.338990 7.600050 -1.598462 46.328784 -11.719623 -27.754119 5.989587 0.000000 0.000000 0.000000 -9.069468 4.048549 63.209229 10.984652 -0.838032 -32.133252 5.791706 10.534455 32.958658 -3.457710 5.125939 -23.430963 0.000000 0.000000 0.000000 -33.970957 2.055144 -8.932405 -49.485283 -2.537190 -6.115413 -12.580382 -61.506325 9.790569 0.000000 0.000000 0.000000 10.210702 0.844838 1.408749 62.346710 11.262505 -2.264990 -12.182426 58.644261 0.313221 0.000000 0.000000 0.000000 
-0.167382 0.873564 1.057255 -1.896153 -2.923159 13.372544 5.429924 -1.808491 -63.405110 -6.060074 1.898428 41.207977 6.848499 15.754511 13.787711 0.000000 0.000000 0.000000 5.084712 6.668650 -42.815980 8.841481 -2.264606 48.010219 -12.804469 -29.993122 5.237224 0.000000 0.000000 0.000000 -9.174548 4.295817 64.199576 11.024355 -0.665221 -33.616422 5.827577 10.488385 34.869191 -2.436390 4.596135 -25.271902 0.000000 0.000000 0.000000 -32.721105 1.541358 -8.158854 -50.764731 -1.763753 -6.861151 -11.772492 -63.633254 9.777652 0.000000 0.000000 0.000000 8.859195 0.839648 1.301999 65.212648 10.640116 -2.431219 -13.985128 57.897938 -0.456880 0.000000 0.000000 0.000000 
-0.166524 0.863103 1.084386 -3.076228 -3.997694 13.508169 6.181350 -0.908274 -59.247528 -5.835378 1.604836 32.404834 6.523381 15.316398 16.442265 0.000000 0.000000 0.000000 5.767456 6.970803 -42.100159 10.307081 -2.885985 50.037793 -13.107057 -31.081164 3.205991 0.000000 0.000000 0.000000 -9.281170 4.808832 64.312385 10.260219 -0.601661 -33.398755 6.068968 9.915750 34.660444 -1.878275 4.113235 -25.101285 0.000000 0.000000 0.000000 -31.241530 3.110055 -8.484408 -52.635018 -1.960035 -7.234991 -13.383426 -62.869599 10.860766 0.000000 0.000000 0.000000 7.805878 1.435169 1.393282 67.456106 9.398904 -2.966348 -16.405116 58.226467 -1.839915 0.000000 0.000000 0.000000 
-0.162876 0.849065 1.115062 -4.056192 -5.218693 14.243074 5.786736 -0.668902 -57.541134 -4.433788 1.135090 32.181022 8.004092 17.205236 14.055120 0.000000 0.000000 0.000000 5.840477 7.217602 -42.141408 11.916665 -3.623492 52.910242 -13.159864 -31.916249 0.572999 0.000000 0.000000 0.000000 -9.168933 5.155420 63.466855 10.487398 -0.692784 -32.900800 5.423198 9.645348 34.652988 -2.011438 4.057054 -24.984136 0.000000 0.000000 0.000000 -30.036847 3.038438 -7.788152 -53.772867 -2.424918 -7.370135 -10.851087 -63.122374 9.557937 0.000000 0.000000 0.000000 7.567323 0.323129 0.798945 69.198605 8.058354 -3.742368 -14.059754 59.199505 -0.663894 0.000000 0.000000 0.000000 
-0.156332 0.836930 1.146219 -4.340629 -6.574969 14.770252 5.861671 -0.145745 -57.839201 -5.014072 1.654133 35.640332 9.490836 19.323458 9.547876 0.000000 0.000000 0.000000 5.148274 7.473902 -43.353078 13.242103 -4.335775 57.877562 -13.471816 -32.376438 1.519065 0.000000 0.000000 0.000000 -9.231311 5.652190 62.571576 10.107230 -0.662860 -32.674643 4.635452 8.021131 35.169333 -2.440777 3.989952 -25.664174 0.000000 0.000000 0.000000 -29.865404 4.593332 -7.912478 -53.564177 -3.017652 -7.403887 -11.980696 -63.064782 10.834787 0.000000 0.000000 0.000000 8.404143 -0.608000 0.210997 68.480097 6.668915 -5.114814 -10.527833 61.136240 0.922875 0.000000 0.000000 0.000000 
-0.148557 0.831111 1.175138 -4.197834 -7.862596 15.549739 5.468935 0.141901 -59.274024 -5.696194 2.344067 40.091250 10.418932 20.848768 6.602370 0.000000 0.000000 0.000000 3.111176 7.621485 -46.383657 15.219593 -5.762105 62.938090 -14.551075 -32.486698 9.620604 0.000000 0.000000 0.000000 -9.299320 6.139212 61.908629 9.439431 -0.711746 -31.388464 3.517196 6.809722 34.292409 -3.423029 4.245698 -25.529756 0.000000 0.000000 0.000000 -27.111085 5.027522 -6.911438 -55.145519 -4.724739 -7.026960 -10.489516 -63.390183 10.433747 0.000000 0.000000 0.000000 9.394373 -2.071115 -0.668573 68.619470 5.630916 -5.928870 -7.549717 61.974747 2.262479 0.000000 0.000000 0.000000 
-0.141417 0.829368 1.200827 -3.798836 -6.600484 15.527463 3.924354 -1.156215 -60.403299 -5.322460 2.202690 44.734330 10.417622 21.046968 4.799046 0.000000 0.000000 0.000000 0.757520 6.917490 -48.780605 16.750619 -8.242163 68.911766 -13.185470 -28.887515 15.063786 0.000000 0.000000 0.000000 -8.856731 5.369478 62.095691 9.265810 -0.815487 -30.146162 3.137545 4.768794 34.276396 -4.378840 4.513713 -25.469320 0.000000 0.000000 0.000000 -29.157680 5.326742 -6.828515 -53.265872 -6.944773 -6.027400 -6.080233 -64.468702 8.381886 0.000000 0.000000 0.000000 8.027018 -2.442825 -1.043293 68.557097 5.484704 -6.244207 -1.569258 63.036473 5.406194 0.000000 0.000000 0.000000 
-0.136212 0.828826 1.224178 -4.918970 -6.680895 16.100770 4.262807 -0.865048 -61.789823 -5.382332 2.480013 49.407883 10.551042 21.345934 3.336951 0.000000 0.000000 0.000000 -1.275394 6.966627 -53.510559 19.136820 -11.403819 74.130545 -12.208308 -26.139969 23.598978 0.000000 0.000000 0.000000 -9.118777 5.615368 62.398499 10.042383 -0.921556 -30.307736 2.885540 5.407325 34.705997 -4.664587 4.774444 -24.836999 0.000000 0.000000 0.000000 -27.421972 5.197444 -6.612736 -54.414482 -7.160636 -6.084943 -2.674160 -65.815203 6.348982 0.000000 0.000000 0.000000 9.177778 -2.923752 -1.220228 67.025648 5.936359 -5.974103 -1.133358 62.627626 5.781906 0.000000 0.000000 0.000000 
-0.133312 0.828052 1.246508 -5.220814 -5.973535 16.301916 4.387849 -1.044529 -61.883142 -5.939560 2.889443 52.399256 10.228368 20.902557 0.808904 0.000000 0.000000 0.000000 -3.762193 6.233456 -57.333992 20.395667 -13.270958 74.580475 -13.255375 -26.569810 31.377165 0.000000 0.000000 0.000000 -9.418405 5.633574 63.102020 10.232304 -0.922932 -30.497463 3.865227 5.194112 35.187233 -6.264591 5.717259 -24.338745 0.000000 0.000000 0.000000 -27.476192 4.312628 -6.071432 -53.970930 -8.003848 -5.697363 -0.368118 -66.785867 4.924419 0.000000 0.000000 0.000000 8.609972 -3.037933 -1.239104 67.479312 6.243478 -5.795082 0.489993 61.446322 6.679316 0.000000 0.000000 0.000000 
-0.131732 0.827058 1.268641 -5.857787 -5.639173 16.288931 4.953236 -0.823873 -61.090554 -6.278646 3.197046 53.938170 10.102303 20.733694 -1.228860 0.000000 0.000000 0.000000 -4.464170 6.292179 -60.814849 20.038992 -12.958188 73.213739 -14.898386 -28.671674 30.655197 0.000000 0.000000 0.000000 -9.143124 5.430905 64.075421 10.218395 -0.993095 -29.919865 3.765780 5.351053 34.847661 -6.513059 5.957066 -22.888150 0.000000 0.000000 0.000000 -28.355101 4.038773 -6.126274 -52.925150 -7.837208 -5.677231 3.042316 -68.794726 2.694936 0.000000 0.000000 0.000000 10.609779 -2.087626 -0.772718 66.575630 6.708372 -5.644989 -2.903863 62.105317 4.859097 0.000000 0.000000 0.000000 
-0.130367 0.825536 1.289951 -6.489941 -5.340161 16.522408 5.901795 -0.402010 -59.597574 -6.681956 3.503471 54.204120 9.345800 19.232299 -4.983204 0.000000 0.000000 0.000000 -5.696459 6.100586 -65.124742 20.882439 -13.224454 69.394709 -15.741245 -31.605854 20.994113 0.000000 0.000000 0.000000 -9.316289 5.644652 65.830699 11.327846 -1.048728 -30.924987 4.653344 6.652062 34.982636 -6.486704 6.171831 -22.251460 0.000000 0.000000 0.000000 -29.534077 3.089068 -6.377851 -52.040929 -7.544341 -5.506262 1.455172 -69.795436 3.334560 0.000000 0.000000 0.000000 9.924638 -2.337672 -0.684933 67.361238 6.519010 -5.483995 -6.646309 61.701629 3.060464 0.000000 0.000000 0.000000 
-0.129047 0.825287 1.310947 -7.278123 -5.601464 16.338671 6.920594 0.217752 -58.112147 -7.185476 3.993350 54.432848 9.434126 19.424179 -6.125943 0.000000 0.000000 0.000000 -6.311385 6.245939 -68.153254 20.402608 -11.520914 62.696743 -14.123455 -30.775296 14.769836 0.000000 0.000000 0.000000 -9.303036 5.947449 67.441182 11.323848 -1.045204 -31.071318 5.498679 7.621505 34.469167 -6.719356 6.445218 -21.995537 0.000000 0.000000 0.000000 -29.299215 2.713488 -6.535795 -52.008740 -6.562232 -5.731555 2.222643 -70.070877 2.413544 0.000000 0.000000 0.000000 9.792916 -2.400502 -0.595529 67.216113 6.731728 -5.132308 -9.338443 60.655134 1.645027 0.000000 0.000000 0.000000 
-0.127968 0.826562 1.332260 -7.665454 -5.980210 16.074023 7.289569 0.477052 -56.298466 -7.099594 4.087481 54.383277 9.388808 19.316159 -7.029006 0.000000 0.000000 0.000000 -6.048819 6.681890 -68.935518 18.928644 -9.158720 55.574896 -13.748474 -30.110472 16.566588 0.000000 0.000000 0.000000 -8.698488 5.764170 68.305176 10.831577 -0.953548 -31.365117 5.581121 7.719070 34.405822 -6.559984 6.336425 -23.090304 0.000000 0.000000 0.000000 -29.540547 3.018087 -6.821162 -52.579539 -6.618916 -5.742781 1.316778 -69.424931 3.052506 0.000000 0.000000 0.000000 9.001446 -1.855790 -0.335156 68.153074 7.136981 -4.815745 -12.071476 59.565964 0.158131 0.000000 0.000000 0.000000 
-0.127785 0.828798 1.354485 -7.556424 -5.442552 16.519806 7.407100 0.332819 -54.937589 -7.496590 4.226980 53.569886 9.269447 19.084648 -8.068853 0.000000 0.000000 0.000000 -5.955762 6.510681 -68.772801 15.881945 -6.125216 45.980907 -12.303787 -27.807270 18.548053 0.000000 0.000000 0.000000 -7.764266 4.877677 68.562051 9.638202 -0.727087 -31.757789 5.745580 7.649761 33.507098 -5.741197 5.765194 -24.582837 0.000000 0.000000 0.000000 -28.261861 3.566455 -6.960802 -54.130183 -6.566592 -5.816117 -1.551939 -68.339687 4.892154 0.000000 0.000000 0.000000 7.226558 -2.445668 -0.679447 69.634810 6.728391 -4.676682 -12.206014 58.799768 -0.050256 0.000000 0.000000 0.000000 
-0.129332 0.833385 1.377857 -6.962103 -5.302430 15.907047 7.158513 0.066500 -52.593779 -8.058692 4.515906 52.431884 9.732439 20.160840 -6.643999 0.000000 0.000000 0.000000 -5.126615 6.670411 -66.820146 11.814723 -3.394641 38.245758 -10.297696 -24.645256 19.938446 0.000000 0.000000 0.000000 -7.587094 4.725762 69.162251 9.821053 -0.671033 -32.569532 5.492084 8.012995 33.638103 -4.608804 5.183266 -27.014683 0.000000 0.000000 0.000000 -28.273707 4.058234 -7.470749 -54.511659 -6.314910 -5.900515 -4.637132 -66.096927 6.556844 0.000000 0.000000 0.000000 6.333376 -1.709854 -0.321119 71.621429 8.135987 -3.554430 -15.785211 57.853431 -1.712426 0.000000 0.000000 0.000000 
-0.133435 0.837988 1.402387 -6.102052 -4.337952 15.063110 6.597676 -0.544779 -49.872533 -8.047839 4.219638 51.283431 9.495569 19.645640 -5.829435 0.000000 0.000000 0.000000 -4.153558 6.469058 -64.300855 9.507938 -2.296639 35.588690 -9.593815 -23.336807 19.834428 0.000000 0.000000 0.000000 -7.061150 3.851324 69.279370 9.599755 -0.647890 -32.531430 4.846685 8.320473 32.669592 -3.217292 4.504567 -28.327208 0.000000 0.000000 0.000000 -27.082844 4.412913 -7.586922 -55.550881 -6.520272 -5.821074 -6.941537 -63.932268 7.550680 0.000000 0.000000 0.000000 6.957468 -0.428888 0.314760 72.134640 9.190931 -2.697135 -20.607146 56.926321 -4.107219 0.000000 0.000000 0.000000 
